<?xml version="1.0" standalone="no"?>
<!DOCTYPE svg PUBLIC "-//W3C//DTD SVG 20010904//EN"
 "http://www.w3.org/TR/2001/REC-SVG-20010904/DTD/svg10.dtd">
<svg version="1.0" xmlns="http://www.w3.org/2000/svg"
 width="512.000000pt" height="512.000000pt" viewBox="0 0 512.000000 512.000000"
 preserveAspectRatio="xMidYMid meet">
<metadata>
Created by potrace 1.11, written by Peter Selinger 2001-2013
</metadata>
<g transform="translate(0.000000,512.000000) scale(0.100000,-0.100000)"
fill="#000000" stroke="none">
<path d="M2765 5043 c-133 -123 -317 -258 -404 -295 -44 -19 -44 -19 -110 4
-88 30 -249 32 -331 4 -157 -54 -296 -201 -341 -360 -19 -71 -20 -230 0 -279
16 -41 14 -50 -20 -93 -68 -84 -118 -244 -123 -389 -2 -60 20 -168 44 -217 45
-88 104 -130 225 -158 l69 -16 38 -99 c21 -55 61 -163 89 -240 27 -77 66 -180
84 -229 19 -50 33 -91 31 -93 -1 -2 -25 4 -52 12 -92 27 -166 25 -299 -8 -24
-6 -142 -67 -162 -84 -12 -10 -45 -36 -72 -58 -55 -43 -69 -74 -53 -109 14
-31 54 -38 92 -15 42 26 106 24 215 -5 84 -23 245 -82 340 -125 225 -103 586
-243 660 -257 80 -14 146 -19 165 -12 l23 8 -7 -104 c-4 -58 -9 -115 -11 -128
-6 -36 -13 -89 -20 -143 -9 -72 -52 -292 -81 -415 -13 -58 -27 -115 -29 -127
-7 -31 -15 -29 -79 14 -52 36 -54 39 -48 73 8 49 8 185 -2 248 -45 311 -324
609 -691 740 -210 74 -281 84 -293 40 -5 -19 -9 -20 -76 -14 -137 14 -198 -1
-221 -52 -7 -17 -18 -22 -46 -22 -19 0 -55 -6 -80 -14 -24 -8 -69 -17 -99 -21
-80 -9 -150 -51 -181 -109 -21 -41 -28 -46 -59 -47 -39 -1 -82 -6 -120 -13
-14 -2 -37 -5 -52 -5 -16 -1 -40 -13 -59 -32 -30 -29 -34 -30 -114 -28 -45 1
-110 6 -144 11 -51 8 -66 7 -87 -6 -38 -26 -31 -60 33 -145 55 -74 297 -321
314 -321 5 0 9 -9 9 -20 0 -27 108 -133 198 -194 59 -41 72 -54 72 -76 0 -41
33 -75 108 -113 37 -18 82 -47 99 -64 18 -17 54 -40 80 -52 66 -30 78 -37 78
-47 3 -45 31 -63 126 -83 24 -5 64 -15 89 -21 77 -21 297 -20 412 1 193 34
393 117 570 235 l99 66 55 -36 c30 -20 57 -43 60 -50 7 -19 -64 -274 -169
-601 -62 -196 -61 -225 8 -225 18 0 37 6 42 13 18 22 123 348 187 580 51 183
39 162 124 204 42 21 104 53 136 71 l60 33 85 -39 c237 -110 502 -116 763 -17
157 59 231 108 363 240 231 231 428 561 571 956 30 84 30 105 -1 125 -26 17
-30 16 -100 -10 -61 -22 -177 -36 -410 -51 -49 -3 -120 -7 -156 -10 -256 -16
-352 -28 -479 -60 -139 -35 -340 -124 -387 -170 -8 -8 -18 -15 -23 -15 -22 0
-164 -157 -205 -227 -40 -69 -79 -164 -89 -219 -16 -88 -19 -121 -18 -204 1
-52 6 -117 11 -145 5 -27 7 -53 3 -56 -15 -13 -152 -82 -156 -78 -2 2 6 47 19
99 38 160 77 346 90 435 3 23 7 50 9 60 2 11 7 49 11 85 4 36 9 72 10 80 2 8
6 58 10 110 4 52 11 100 16 106 5 6 25 11 44 12 50 2 176 47 280 102 106 55
110 57 335 195 171 105 358 215 365 215 2 0 32 13 67 29 35 16 80 34 102 41
37 12 114 10 147 -4 20 -9 59 22 63 49 6 35 -12 53 -101 98 -124 62 -206 82
-328 81 -55 0 -113 -4 -128 -8 -52 -12 -119 -37 -154 -57 -20 -11 -37 -18 -39
-16 -2 2 1 19 7 38 18 63 58 214 62 239 16 84 70 267 143 484 30 87 54 159 54
160 0 2 22 17 49 34 71 46 157 135 185 190 37 75 48 118 48 195 0 116 -50 233
-140 329 -95 102 -166 128 -341 125 l-128 -2 -39 73 c-64 123 -185 238 -269
258 -83 19 -233 124 -350 243 -76 78 -99 80 -170 14z"/>
</g>
</svg>
