<svg width="40" height="40" viewBox="0 0 40 40" fill="none" xmlns="http://www.w3.org/2000/svg">
<path fill-rule="evenodd" clip-rule="evenodd" d="M14 24H26C31.5228 24 36 28.4772 36 34C36 35.1046 35.1046 36 34 36C32.9743 36 32.129 35.2279 32.0135 34.2332L31.9898 33.6475C31.8141 30.6145 29.3855 28.1859 26.3525 28.0102L26 28H14C10.6863 28 8 30.6863 8 34C8 35.1046 7.10457 36 6 36C4.89543 36 4 35.1046 4 34C4 28.6225 8.24461 24.2364 13.5662 24.0092L14 24H26H14ZM20 4C25.5228 4 30 8.47715 30 14C30 19.5228 25.5228 24 20 24C14.4772 24 10 19.5228 10 14C10 8.47715 14.4772 4 20 4ZM20 8C16.6863 8 14 10.6863 14 14C14 17.3137 16.6863 20 20 20C23.3137 20 26 17.3137 26 14C26 10.6863 23.3137 8 20 8Z" fill="#EE3625"/>
</svg>
