<svg width="40" height="40" viewBox="0 0 40 40" fill="none" xmlns="http://www.w3.org/2000/svg">
<path fill-rule="evenodd" clip-rule="evenodd" d="M15.9245 16.3867C16.3882 16.0776 16.6667 15.5572 16.6667 14.9999V8.33325C16.6667 5.57183 14.4281 3.33325 11.6667 3.33325H5.00004C4.07957 3.33325 3.33337 4.07944 3.33337 4.99992C3.33337 21.5685 18.4315 36.6666 35 36.6666C35.9205 36.6666 36.6667 35.9204 36.6667 34.9999V28.3333C36.6667 25.5718 34.4281 23.3333 31.6667 23.3333H25C24.4428 23.3333 23.9224 23.6118 23.6133 24.0754L20.4377 28.8388C16.979 26.6024 13.9488 23.6485 11.6179 20.2482L11.1612 19.5622L15.9245 16.3867ZM25.892 26.6666H31.6667C32.5872 26.6666 33.3334 27.4128 33.3334 28.3333V33.2755C30.1046 33.052 26.9536 32.1885 24.0146 30.8192L23.3402 30.4943L25.892 26.6666ZM6.7245 6.66659H11.6667C12.5872 6.66659 13.3334 7.41278 13.3334 8.33325V14.1079L9.50567 16.6597C7.94808 13.5307 6.9651 10.1437 6.7245 6.66659Z" fill="#EE3625"/>
</svg>
