<?xml version="1.0" encoding="UTF-8"?>
<!DOCTYPE svg PUBLIC "-//W3C//DTD SVG 1.1//EN" "http://www.w3.org/Graphics/SVG/1.1/DTD/svg11.dtd">
<!-- Creator: CorelDRAW 2018 (64-Bit) -->
<svg xmlns="http://www.w3.org/2000/svg" xml:space="preserve" width="1024px" height="1024px" version="1.1" style="shape-rendering:geometricPrecision; text-rendering:geometricPrecision; image-rendering:optimizeQuality; fill-rule:evenodd; clip-rule:evenodd"
viewBox="0 0 1024 1024"
 xmlns:xlink="http://www.w3.org/1999/xlink">
 <defs>
  <style type="text/css">
   <![CDATA[
    .fil0 {fill:none}
    .fil1 {fill:black}
    .fil2 {fill:black;fill-rule:nonzero}
   ]]>
  </style>
 </defs>
 <g id="Слой_x0020_1">
  <metadata id="CorelCorpID_0Corel-Layer"/>
  <rect class="fil0" width="1024" height="1024"/>
  <g id="_2022182108880">
   <path class="fil1" d="M241.52 684.61c16.6,-1.56 38.27,-1.97 65.13,29.91 11.26,13.36 37.83,44.74 55.77,34.66 5.26,-2.95 9.01,-5.45 14.19,-8.32 12.97,11.64 27.13,43.18 52.6,52.2 6.67,2.36 47.75,20.58 11.07,18.6 -18.11,-0.98 -153.35,-57.03 -167.51,-68.19 -21.5,-16.95 -89.32,-27.21 -96.04,-53.66 -8.33,-32.76 150.04,-120.04 174.24,-126.57 10.22,-2.75 28.08,48.59 21.01,66.96 -4.82,12.55 -81.52,55.9 -131.53,53.39 -2.83,-0.13 -2.24,1.03 1.07,1.02z"/>
   <path class="fil1" d="M641.07 273.96c-1.74,18.9 -18.95,23.35 -32.29,30.7 31.77,11.52 57.45,-3.34 79.95,-12.64 -9.91,45.36 -68.96,71.86 -104.55,57.69 15.62,16.5 28.22,14.94 40.51,13.7 -36.39,38.43 -280.84,43.92 -279.64,-96.42 0.45,-52.44 36.67,-72.08 85.2,-58.75 94.79,26.04 98.73,81.39 210.82,65.72z"/>
   <path class="fil1" d="M398.3 320.86c15.3,4.42 25.43,-4.65 35.55,-37.28 23.26,-75.04 -70.11,-92.24 -78.1,-27.42 -4.15,33.72 20.74,80.05 2.62,86.06 -22.11,7.33 -33.55,-34.02 -41.72,-48.97 -18.96,-34.74 34.06,342.14 45.69,346.74 30.75,-27.82 111.71,-70.91 55.53,-126.71 -49.55,-49.21 -20.98,-114.83 18.32,-121.26 13.43,-2.19 78.36,6.75 98.61,8.19 82.07,5.84 132.52,-33.94 162.58,-29.66 5.37,0.77 18.98,-5.08 26.39,-4.72 5.5,0.27 27.11,4.6 30.12,2.87 4.35,-2.49 -1.39,-8.42 -12.29,-12.7 -6.93,-2.73 -15.96,-4.81 -25.8,-4.93 -5.68,-0.07 -13.57,4.09 -19.53,5.56 -20.75,5.11 -77.9,4.04 -122.86,14.28 -20.93,4.76 -31.05,3.6 -38.74,0.75 -32.42,-12.04 -35.94,-5.64 -60.63,-11.55 -18.44,-4.42 -28.66,-16.36 -62.08,-8.03 -18.28,4.55 -16.44,-21.3 -13.66,-31.22z"/>
   <path class="fil1" d="M364.77 324.27c-25.2,-27.9 -23.05,-85.64 2.56,-106.47 13.27,-10.79 43.23,-17.59 67.69,3.93 15.47,13.62 33.35,75.7 18.86,67.03 -13.01,-6.82 -15.68,-20.43 -46.72,-31.99 -23.33,-8.69 -16.84,-42.49 -16.84,6.74 0,40.44 -31.26,35.51 -25.55,60.76z"/>
   <path class="fil2" d="M361.43 612.39c-2.41,-8.45 -7.67,-25.2 -13.49,-46.34 -78.83,-285.89 -50.89,-348.87 -25.46,-253.93 19.53,72.88 77.35,183.29 94.05,248.61 17.19,67.19 17.57,140.52 14.55,166.61 -1.59,13.72 -19.46,60.43 -31.99,13.68 -9.61,-35.89 -23.63,-79.48 -37.66,-128.63z"/>
   <path class="fil2" d="M671.9 983.56c-4.95,0 -8.52,-1.77 -10.86,-5.14 -3.73,-5.37 -5.71,-11.44 -5.71,-18.29 0,-6.86 1.1,-15.42 2.85,-25.72 0.13,-0.74 0.1,-1.63 0.29,-2.58 0.19,-0.95 0.33,-2.46 -0.29,-4.28 -18.95,-55.98 -79.73,-246.93 -87.91,-315.36 -16.49,105.91 -43.78,192.69 -80.08,291.92 -10.57,28.92 9.44,67.59 -3.48,69.4 -8.01,1.12 -43.31,2.92 -11.96,-12.2l-18.28 -45.77 -12 -32.01c-52.41,-156.31 -224.16,-707.54 -167.73,-843.09l1.71 0c1.19,181.52 105.77,518.41 152.63,686.9 3.05,10.96 11.74,14.58 20.96,24.53 22.35,18.72 9.87,79.23 19.16,117.97 4.61,1.14 9.23,2.27 13.85,3.4 14.36,-38.95 66.04,-211.54 74.36,-295.34 -6.41,-21.37 -19.97,-121.75 18.86,-121.75 0.76,0 2.1,0.48 4,1.43 1.9,0.95 3.83,2.75 5.72,5.43 5.35,7.61 8.67,18.48 10,32.58 1.33,14.1 -1.24,29.34 -7.72,45.72 8.46,69.45 67.13,262.68 82.78,336.79 30.81,-131.63 93.38,-328.81 143.25,-399.05 19.97,-28.13 48.16,8.72 18.23,20.6 -53.14,21.09 -126.95,326.83 -154.46,404.22 9.74,19.71 9.44,52.08 6.98,63.11 -2.46,11.04 -7.52,16.58 -15.15,16.58z"/>
  </g>
 </g>
</svg>
