<svg width="100" height="100" viewBox="0 0 100 100" fill="none" xmlns="http://www.w3.org/2000/svg">
<circle cx="50" cy="50" r="50" fill="#EE3625"/>
<path d="M36.6959 32.7828C37.9926 32.7828 39.0437 31.8192 39.0437 30.6306C39.0437 29.442 37.9926 28.4784 36.6959 28.4784C35.3992 28.4784 34.348 29.442 34.348 30.6306C34.348 31.8192 35.3992 32.7828 36.6959 32.7828Z" fill="white"/>
<path d="M64.0876 32.7828C65.3843 32.7828 66.4354 31.8192 66.4354 30.6306C66.4354 29.442 65.3843 28.4784 64.0876 28.4784C62.7909 28.4784 61.7397 29.442 61.7397 30.6306C61.7397 31.8192 62.7909 32.7828 64.0876 32.7828Z" fill="white"/>
<path d="M50.0005 24.1736C51.2972 24.1736 52.3484 23.21 52.3484 22.0214C52.3484 20.8327 51.2972 19.8691 50.0005 19.8691C48.7038 19.8691 47.6526 20.8327 47.6526 22.0214C47.6526 23.21 48.7038 24.1736 50.0005 24.1736Z" fill="white"/>
<path d="M51.5454 31.1626C50.6619 30.4522 49.3382 30.4522 48.4546 31.1626C48.0296 31.5031 38.0374 39.6334 38.0374 50C38.0374 60.3667 48.0296 68.4969 48.4546 68.8375C48.8963 69.1927 49.4483 69.37 49.9999 69.37C50.5516 69.37 51.1036 69.1927 51.5453 68.8375C51.9702 68.497 61.9625 60.3667 61.9625 50C61.9625 39.6334 51.9702 31.5032 51.5454 31.1626Z" fill="white"/>
<path d="M79.5574 42.73C79.4887 41.635 78.5333 40.762 77.3395 40.7025C77.0141 40.6898 71.3476 40.4528 65.1726 42.2033C66.0694 44.601 66.6581 47.2131 66.6581 50.0001C66.6581 58.166 61.7445 64.9077 58.17 68.7375C62.6143 67.9697 67.988 66.2952 72.054 62.654C80.2347 55.3307 79.5881 43.2414 79.5574 42.73Z" fill="white"/>
<path d="M21.0556 61.6378C17.2982 63.4822 14.9013 65.5108 14.7439 65.6455C13.7521 66.4946 13.7521 67.9403 14.7439 68.7898C15.0787 69.077 23.0699 75.8265 33.1736 75.8265C37.2454 75.8265 40.9613 74.7263 43.9841 73.3987C34.596 72.4001 26.1844 68.913 21.0556 61.6378Z" fill="white"/>
<path d="M85.256 65.6456C85.0986 65.511 82.7017 63.4826 78.9446 61.6381C73.8153 68.9149 65.403 72.4002 56.0159 73.3987C59.0385 74.7262 62.7543 75.8264 66.8261 75.8264C76.9299 75.8264 84.921 69.077 85.2558 68.7897C86.2479 67.9406 86.2479 66.4948 85.256 65.6456Z" fill="white"/>
<path d="M50.0026 75.2631C48.3864 76.2063 46.422 77.192 44.1767 78.0356C46.3947 79.1159 48.538 79.8042 49.2677 80.0237C49.7375 80.1645 50.248 80.1687 50.732 80.0237C51.4617 79.8042 53.6051 79.1161 55.8231 78.0356C53.584 77.1941 51.6185 76.2027 50.0026 75.2631Z" fill="white"/>
<path d="M33.3418 50C33.3418 47.2127 33.9306 44.6005 34.8275 42.2025C28.653 40.4513 22.9866 40.688 22.6602 40.7026C21.4665 40.7621 20.5112 41.6351 20.4423 42.7301C20.4118 43.2415 19.7652 55.3308 27.9459 62.6541C32.0123 66.2948 37.3855 67.9693 41.8291 68.7372C38.2564 64.909 33.3418 58.1667 33.3418 50Z" fill="white"/>
</svg>
