<svg width="100" height="100" viewBox="0 0 100 100" fill="none" xmlns="http://www.w3.org/2000/svg">
<circle cx="50" cy="50" r="50" fill="#EE3625"/>
<g clip-path="url(#clip0_1_177)">
<path d="M49.3417 31.7297C52.1409 31.7297 54.4101 29.3344 54.4101 26.3797C54.4101 23.425 52.1409 21.0298 49.3417 21.0298C46.5425 21.0298 44.2733 23.425 44.2733 26.3797C44.2733 29.3344 46.5425 31.7297 49.3417 31.7297Z" fill="white"/>
<path d="M51.7598 12.3454C50.8121 13.4431 59.4812 21.2777 59.4812 26.9168C59.4812 29.7379 55.5534 34.477 54.4883 35.2619C53.8369 35.7429 51.7179 35.6573 49.1572 35.6927C47.5413 35.7193 44.3683 35.6632 43.8595 35.1262C42.526 33.7186 39.0763 29.5844 39.0763 27.504C39.0763 23.1161 46.8844 12.8263 45.6711 12.0296C44.5696 11.3007 33.6753 23.8036 33.6753 27.7017C33.6753 33.6802 41.282 42.4886 41.282 42.4886C41.282 42.4886 41.2205 54.5636 41.2205 55.8237C41.2205 66.6623 44.8016 88.0001 47.9075 88.0001C49.8197 88.0001 48.148 76.6569 48.148 71.2833C48.148 64.8976 49.3417 58.5119 49.3417 58.5119C49.3417 58.5119 58.8662 62.0146 57.8514 63.1182C55.4696 65.7062 48.995 68.2174 49.8337 69.5453C50.8904 71.2155 60.3758 68.6039 66.0145 63.9032C68.3767 61.9349 56.4592 52.498 56.4592 52.498C56.4592 47.2366 56.5291 47.1127 56.2831 42.4916C56.2831 42.4916 64.3791 33.1697 64.3791 27.8611C64.3791 20.4957 53.152 10.7283 51.7598 12.3454Z" fill="white"/>
</g>
<defs>
<clipPath id="clip0_1_177">
<rect width="72" height="76" fill="white" transform="translate(14 12)"/>
</clipPath>
</defs>
</svg>
